<svg xmlns="http://www.w3.org/2000/svg" xmlns:xlink="http://www.w3.org/1999/xlink" width="500" zoomAndPan="magnify" viewBox="0 0 375 374.999991" height="500" preserveAspectRatio="xMidYMid meet" version="1.0"><defs><g/><clipPath id="de133fe2f6"><path d="M 296 96.125 L 362.632812 96.125 L 362.632812 141 L 296 141 Z M 296 96.125 " clip-rule="nonzero"/></clipPath><clipPath id="5229ec5956"><path d="M 12.363281 96.125 L 78.878906 96.125 L 78.878906 141 L 12.363281 141 Z M 12.363281 96.125 " clip-rule="nonzero"/></clipPath></defs><g fill="#009698" fill-opacity="1"><g transform="translate(65.22834, 185.293343)"><g><path d="M 47.34375 -43.671875 L 25.71875 -11.5 L 45.640625 -11.5 L 45.640625 0 L 0.421875 0 L 22.046875 -32.1875 L 4 -32.1875 L 4 -43.671875 Z M 47.34375 -43.671875 "/></g></g></g><g fill="#009698" fill-opacity="1"><g transform="translate(104.977562, 185.293343)"><g><path d="M 19.328125 -43.671875 L 19.328125 -22.90625 C 19.328125 -18.59375 19.976562 -15.523438 21.28125 -13.703125 C 22.59375 -11.890625 24.804688 -10.984375 27.921875 -10.984375 C 31.046875 -10.984375 33.257812 -11.890625 34.5625 -13.703125 C 35.875 -15.523438 36.53125 -18.59375 36.53125 -22.90625 L 36.53125 -43.671875 L 51.59375 -43.671875 L 51.59375 -19.234375 C 51.59375 -11.972656 49.703125 -6.738281 45.921875 -3.53125 C 42.148438 -0.320312 36.148438 1.28125 27.921875 1.28125 C 19.691406 1.28125 13.6875 -0.320312 9.90625 -3.53125 C 6.132812 -6.738281 4.25 -11.972656 4.25 -19.234375 L 4.25 -43.671875 Z M 19.328125 -43.671875 "/></g></g></g><g fill="#009698" fill-opacity="1"><g transform="translate(152.813296, 185.293343)"><g><path d="M 9.234375 -5.1875 C 4.378906 -9.507812 1.953125 -15.046875 1.953125 -21.796875 C 1.953125 -28.546875 4.476562 -34.09375 9.53125 -38.4375 C 14.582031 -42.78125 20.828125 -44.953125 28.265625 -44.953125 C 35.585938 -44.953125 41.757812 -42.765625 46.78125 -38.390625 C 51.800781 -34.023438 54.3125 -28.492188 54.3125 -21.796875 C 54.3125 -15.097656 51.859375 -9.578125 46.953125 -5.234375 C 42.046875 -0.890625 35.816406 1.28125 28.265625 1.28125 C 20.429688 1.28125 14.085938 -0.875 9.234375 -5.1875 Z M 20.90625 -29.203125 C 18.945312 -27.273438 17.96875 -24.804688 17.96875 -21.796875 C 17.96875 -18.785156 18.898438 -16.328125 20.765625 -14.421875 C 22.640625 -12.523438 25.113281 -11.578125 28.1875 -11.578125 C 31.132812 -11.578125 33.554688 -12.539062 35.453125 -14.46875 C 37.359375 -16.40625 38.3125 -18.847656 38.3125 -21.796875 C 38.3125 -24.804688 37.332031 -27.273438 35.375 -29.203125 C 33.414062 -31.128906 31.019531 -32.09375 28.1875 -32.09375 C 25.289062 -32.09375 22.863281 -31.128906 20.90625 -29.203125 Z M 20.90625 -29.203125 "/></g></g></g><g fill="#009698" fill-opacity="1"><g transform="translate(201.07463, 185.293343)"><g><path d="M 5.109375 0 L 5.109375 -43.671875 L 20.171875 -43.671875 L 20.171875 -37.375 L 20.34375 -37.375 C 20.457031 -37.601562 20.640625 -37.882812 20.890625 -38.21875 C 21.148438 -38.5625 21.707031 -39.160156 22.5625 -40.015625 C 23.414062 -40.867188 24.320312 -41.632812 25.28125 -42.3125 C 26.25 -43 27.5 -43.609375 29.03125 -44.140625 C 30.5625 -44.679688 32.125 -44.953125 33.71875 -44.953125 C 35.363281 -44.953125 36.976562 -44.722656 38.5625 -44.265625 C 40.15625 -43.816406 41.320312 -43.363281 42.0625 -42.90625 L 43.25 -42.234375 L 36.953125 -29.453125 C 35.078125 -31.046875 32.46875 -31.84375 29.125 -31.84375 C 27.300781 -31.84375 25.738281 -31.441406 24.4375 -30.640625 C 23.132812 -29.847656 22.210938 -28.882812 21.671875 -27.75 C 21.128906 -26.613281 20.742188 -25.648438 20.515625 -24.859375 C 20.285156 -24.066406 20.171875 -23.441406 20.171875 -22.984375 L 20.171875 0 Z M 5.109375 0 "/></g></g></g><g fill="#009698" fill-opacity="1"><g transform="translate(235.461224, 185.293343)"><g><path d="M 8.078125 -5.40625 C 3.992188 -9.863281 1.953125 -15.328125 1.953125 -21.796875 C 1.953125 -28.265625 3.992188 -33.738281 8.078125 -38.21875 C 12.171875 -42.707031 17.367188 -44.953125 23.671875 -44.953125 C 29.460938 -44.953125 34.226562 -43.132812 37.96875 -39.5 L 37.96875 -43.671875 L 53.046875 -43.671875 L 53.046875 0 L 38.140625 0 L 38.140625 -4.9375 L 37.96875 -4.9375 C 34.226562 -0.789062 29.460938 1.28125 23.671875 1.28125 C 17.367188 1.28125 12.171875 -0.945312 8.078125 -5.40625 Z M 20.90625 -29.203125 C 18.945312 -27.273438 17.96875 -24.804688 17.96875 -21.796875 C 17.96875 -18.785156 18.898438 -16.328125 20.765625 -14.421875 C 22.640625 -12.523438 25.113281 -11.578125 28.1875 -11.578125 C 31.132812 -11.578125 33.554688 -12.539062 35.453125 -14.46875 C 37.359375 -16.40625 38.3125 -18.847656 38.3125 -21.796875 C 38.3125 -24.804688 37.332031 -27.273438 35.375 -29.203125 C 33.414062 -31.128906 31.019531 -32.09375 28.1875 -32.09375 C 25.289062 -32.09375 22.863281 -31.128906 20.90625 -29.203125 Z M 20.90625 -29.203125 "/></g></g></g><g fill="#009698" fill-opacity="1"><g transform="translate(285.600093, 185.293343)"><g/></g></g><g clip-path="url(#de133fe2f6)"><path fill="#009698" d="M 312.71875 137.617188 C 311.601562 138.476562 310.417969 139.265625 309.011719 139.773438 C 306.546875 140.667969 304.332031 140.765625 303.492188 140.765625 C 303.28125 140.765625 303.152344 140.757812 303.117188 140.757812 L 300.851562 140.914062 L 302.660156 139.199219 C 304.542969 137.292969 305.34375 135.640625 305.6875 134.503906 C 305.988281 133.507812 305.441406 132.4375 304.417969 132.015625 C 301.640625 130.871094 299.523438 128.75 298.121094 125.714844 C 297.035156 123.359375 296.371094 120.476562 296.09375 116.910156 C 295.914062 114.613281 296.148438 112.304688 296.796875 110.054688 C 297.445312 107.792969 298.46875 105.714844 299.84375 103.875 C 301.402344 101.792969 303.335938 100.089844 305.59375 98.8125 C 307.785156 97.574219 310.222656 96.769531 312.839844 96.414062 C 314.308594 96.21875 315.867188 96.125 317.746094 96.125 C 319.175781 96.125 320.621094 96.179688 322.015625 96.230469 L 322.785156 96.261719 C 326.386719 96.390625 330.035156 96.457031 333.636719 96.457031 C 335.851562 96.457031 338.097656 96.433594 340.3125 96.382812 C 341.140625 96.367188 342.007812 96.316406 342.921875 96.265625 C 344.1875 96.199219 345.492188 96.125 346.804688 96.125 C 348.695312 96.125 350.214844 96.273438 351.59375 96.589844 C 353.332031 96.988281 354.78125 97.648438 356.015625 98.605469 C 357.480469 99.757812 358.648438 101.402344 359.703125 103.792969 C 362.300781 109.699219 362.835938 116.394531 361.167969 122.15625 C 360.402344 124.8125 359.273438 127.046875 357.816406 128.796875 C 356.1875 130.757812 353.90625 132.183594 350.84375 133.164062 C 348.335938 133.964844 345.703125 134.347656 343 134.703125 C 339.167969 135.203125 335.082031 135.460938 330.855469 135.460938 C 328.351562 135.460938 325.730469 135.371094 323.0625 135.195312 C 320.652344 135.035156 317.765625 134.796875 315.351562 134.484375 C 314.539062 135.730469 313.886719 136.71875 312.71875 137.617188 Z M 312.71875 137.617188 " fill-opacity="1" fill-rule="nonzero"/></g><g clip-path="url(#5229ec5956)"><path fill="#009698" d="M 62.277344 137.617188 C 63.394531 138.476562 64.578125 139.265625 65.984375 139.773438 C 68.449219 140.667969 70.664062 140.765625 71.503906 140.765625 C 71.714844 140.765625 71.84375 140.757812 71.878906 140.757812 L 74.144531 140.914062 L 72.335938 139.199219 C 70.457031 137.292969 69.652344 135.640625 69.308594 134.503906 C 69.007812 133.507812 69.554688 132.4375 70.582031 132.015625 C 73.355469 130.871094 75.472656 128.75 76.875 125.714844 C 77.960938 123.359375 78.625 120.476562 78.902344 116.910156 C 79.082031 114.613281 78.847656 112.304688 78.199219 110.054688 C 77.550781 107.792969 76.527344 105.714844 75.152344 103.875 C 73.59375 101.792969 71.660156 100.089844 69.402344 98.8125 C 67.210938 97.574219 64.773438 96.769531 62.15625 96.414062 C 60.6875 96.21875 59.128906 96.125 57.25 96.125 C 55.820312 96.125 54.375 96.179688 52.980469 96.230469 L 52.210938 96.261719 C 48.609375 96.390625 44.960938 96.457031 41.359375 96.457031 C 39.144531 96.457031 36.898438 96.433594 34.683594 96.382812 C 33.855469 96.367188 32.988281 96.316406 32.074219 96.265625 C 30.808594 96.199219 29.503906 96.125 28.191406 96.125 C 26.300781 96.125 24.78125 96.273438 23.402344 96.589844 C 21.664062 96.988281 20.214844 97.648438 18.980469 98.605469 C 17.515625 99.757812 16.347656 101.402344 15.292969 103.792969 C 12.695312 109.699219 12.160156 116.394531 13.828125 122.15625 C 14.59375 124.8125 15.722656 127.046875 17.179688 128.796875 C 18.808594 130.757812 21.089844 132.183594 24.152344 133.164062 C 26.660156 133.964844 29.292969 134.347656 31.996094 134.703125 C 35.828125 135.203125 39.914062 135.460938 44.140625 135.460938 C 46.644531 135.460938 49.269531 135.371094 51.933594 135.195312 C 54.34375 135.035156 57.230469 134.796875 59.644531 134.484375 C 60.457031 135.730469 61.109375 136.71875 62.277344 137.617188 Z M 62.277344 137.617188 " fill-opacity="1" fill-rule="nonzero"/></g><g fill="#ffffff" fill-opacity="1"><g transform="translate(36.270683, 130.456197)"><g><path d="M 6.171875 -9.125 C 6.191406 -9.945312 6.273438 -10.628906 6.421875 -11.171875 C 6.578125 -11.710938 6.835938 -12.203125 7.203125 -12.640625 C 7.566406 -13.085938 8.078125 -13.5625 8.734375 -14.0625 L 10.28125 -15.25 C 11.039062 -15.832031 11.578125 -16.363281 11.890625 -16.84375 C 12.210938 -17.320312 12.382812 -17.878906 12.40625 -18.515625 C 12.425781 -19.285156 12.171875 -19.90625 11.640625 -20.375 C 11.109375 -20.84375 10.316406 -21.09375 9.265625 -21.125 C 8.210938 -21.164062 7.296875 -20.941406 6.515625 -20.453125 C 5.734375 -19.972656 5.03125 -19.273438 4.40625 -18.359375 L 4.015625 -18.296875 L 1.265625 -21.46875 C 2.265625 -22.8125 3.445312 -23.8125 4.8125 -24.46875 C 6.1875 -25.132812 7.8125 -25.441406 9.6875 -25.390625 C 11.445312 -25.335938 12.914062 -25.023438 14.09375 -24.453125 C 15.269531 -23.878906 16.132812 -23.109375 16.6875 -22.140625 C 17.238281 -21.179688 17.492188 -20.097656 17.453125 -18.890625 C 17.410156 -17.566406 17.101562 -16.4375 16.53125 -15.5 C 15.957031 -14.570312 15.085938 -13.671875 13.921875 -12.796875 L 12.21875 -11.515625 C 11.5625 -11.035156 11.117188 -10.597656 10.890625 -10.203125 C 10.671875 -9.816406 10.550781 -9.296875 10.53125 -8.640625 L 10.515625 -8.078125 L 6.140625 -8.21875 Z M 8.078125 0.40625 C 7.484375 0.394531 6.957031 0.257812 6.5 0 C 6.050781 -0.25 5.710938 -0.585938 5.484375 -1.015625 C 5.253906 -1.453125 5.144531 -1.9375 5.15625 -2.46875 C 5.175781 -3.007812 5.3125 -3.492188 5.5625 -3.921875 C 5.820312 -4.359375 6.179688 -4.6875 6.640625 -4.90625 C 7.109375 -5.132812 7.640625 -5.242188 8.234375 -5.234375 C 9.140625 -5.203125 9.859375 -4.910156 10.390625 -4.359375 C 10.921875 -3.816406 11.175781 -3.140625 11.15625 -2.328125 C 11.132812 -1.503906 10.84375 -0.832031 10.28125 -0.3125 C 9.71875 0.195312 8.984375 0.4375 8.078125 0.40625 Z M 8.078125 0.40625 "/></g></g></g><g fill="#ffffff" fill-opacity="1"><g transform="translate(314.305137, 120.286149)"><g><path d="M 4.875 0.296875 C 4.269531 0.285156 3.734375 0.148438 3.265625 -0.109375 C 2.804688 -0.378906 2.457031 -0.738281 2.21875 -1.1875 C 1.988281 -1.632812 1.878906 -2.132812 1.890625 -2.6875 C 1.910156 -3.238281 2.050781 -3.726562 2.3125 -4.15625 C 2.570312 -4.582031 2.941406 -4.914062 3.421875 -5.15625 C 3.898438 -5.394531 4.441406 -5.507812 5.046875 -5.5 C 5.671875 -5.476562 6.210938 -5.335938 6.671875 -5.078125 C 7.128906 -4.816406 7.476562 -4.460938 7.71875 -4.015625 C 7.957031 -3.566406 8.066406 -3.066406 8.046875 -2.515625 C 8.023438 -1.671875 7.722656 -0.984375 7.140625 -0.453125 C 6.566406 0.078125 5.8125 0.328125 4.875 0.296875 Z M 4.875 0.296875 "/></g></g></g><g fill="#ffffff" fill-opacity="1"><g transform="translate(324.080733, 120.57888)"><g><path d="M 4.875 0.296875 C 4.269531 0.285156 3.734375 0.148438 3.265625 -0.109375 C 2.804688 -0.378906 2.457031 -0.738281 2.21875 -1.1875 C 1.988281 -1.632812 1.878906 -2.132812 1.890625 -2.6875 C 1.910156 -3.238281 2.050781 -3.726562 2.3125 -4.15625 C 2.570312 -4.582031 2.941406 -4.914062 3.421875 -5.15625 C 3.898438 -5.394531 4.441406 -5.507812 5.046875 -5.5 C 5.671875 -5.476562 6.210938 -5.335938 6.671875 -5.078125 C 7.128906 -4.816406 7.476562 -4.460938 7.71875 -4.015625 C 7.957031 -3.566406 8.066406 -3.066406 8.046875 -2.515625 C 8.023438 -1.671875 7.722656 -0.984375 7.140625 -0.453125 C 6.566406 0.078125 5.8125 0.328125 4.875 0.296875 Z M 4.875 0.296875 "/></g></g></g><g fill="#ffffff" fill-opacity="1"><g transform="translate(333.85633, 120.871611)"><g><path d="M 4.875 0.296875 C 4.269531 0.285156 3.734375 0.148438 3.265625 -0.109375 C 2.804688 -0.378906 2.457031 -0.738281 2.21875 -1.1875 C 1.988281 -1.632812 1.878906 -2.132812 1.890625 -2.6875 C 1.910156 -3.238281 2.050781 -3.726562 2.3125 -4.15625 C 2.570312 -4.582031 2.941406 -4.914062 3.421875 -5.15625 C 3.898438 -5.394531 4.441406 -5.507812 5.046875 -5.5 C 5.671875 -5.476562 6.210938 -5.335938 6.671875 -5.078125 C 7.128906 -4.816406 7.476562 -4.460938 7.71875 -4.015625 C 7.957031 -3.566406 8.066406 -3.066406 8.046875 -2.515625 C 8.023438 -1.671875 7.722656 -0.984375 7.140625 -0.453125 C 6.566406 0.078125 5.8125 0.328125 4.875 0.296875 Z M 4.875 0.296875 "/></g></g></g></svg>